<svg xmlns="http://www.w3.org/2000/svg" viewBox="0 0 16 16" fill="none">
  <path d="M8 2.5V3.5" stroke="currentColor" stroke-width="1.5" stroke-linecap="round" stroke-linejoin="round"/>
  <path d="M12.5 7C12.5 5.67392 11.9732 4.40215 11.0355 3.46447C10.0979 2.52678 8.82608 2 7.5 2C6.17392 2 4.90215 2.52678 3.96447 3.46447C3.02678 4.40215 2.5 5.67392 2.5 7V9L1.5 11H13.5L12.5 9V7Z" stroke="currentColor" stroke-width="1.5" stroke-linecap="round" stroke-linejoin="round"/>
  <path d="M9.5 11C9.5 11.3978 9.34196 11.7794 9.06066 12.0607C8.77936 12.342 8.39782 12.5 8 12.5C7.60218 12.5 7.22064 12.342 6.93934 12.0607C6.65804 11.7794 6.5 11.3978 6.5 11" stroke="currentColor" stroke-width="1.5" stroke-linecap="round" stroke-linejoin="round"/>
</svg> 