<svg width="127" height="44" viewBox="0 0 127 44" fill="none" xmlns="http://www.w3.org/2000/svg">
<path d="M107 31.1829V17.1953H110.275V19.0423H110.398C110.825 18.3528 111.367 17.8192 112.024 17.4416C112.697 17.0476 113.427 16.8506 114.215 16.8506C115.036 16.8506 115.75 17.0558 116.358 17.4662C116.982 17.8767 117.458 18.4841 117.786 19.2885H117.909C118.927 17.6632 120.396 16.8506 122.317 16.8506C123.696 16.8506 124.772 17.3103 125.543 18.2296C126.315 19.149 126.701 20.4378 126.701 22.0959V31.1829H123.45V22.7854C123.45 21.8825 123.245 21.1765 122.834 20.6676C122.44 20.1422 121.89 19.8796 121.185 19.8796C120.347 19.8796 119.691 20.1587 119.214 20.7169C118.738 21.275 118.5 22.0466 118.5 23.0317V31.1829H115.2V22.7854C115.2 21.8825 115.003 21.1765 114.609 20.6676C114.215 20.1422 113.665 19.8796 112.959 19.8796C112.139 19.8796 111.482 20.1669 110.989 20.7415C110.513 21.2997 110.275 22.0631 110.275 23.0317V31.1829H107Z" fill="#070B10"/>
<path d="M84.2744 31.1829V17.1953H87.5497V19.0423H87.6728C88.0996 18.3528 88.6414 17.8192 89.2981 17.4416C89.9712 17.0476 90.7018 16.8506 91.4898 16.8506C92.3107 16.8506 93.0248 17.0558 93.6323 17.4662C94.2561 17.8767 94.7322 18.4841 95.0606 19.2885H95.1837C96.2016 17.6632 97.6709 16.8506 99.5917 16.8506C100.971 16.8506 102.046 17.3103 102.818 18.2296C103.589 19.149 103.975 20.4378 103.975 22.0959V31.1829H100.725V22.7854C100.725 21.8825 100.519 21.1765 100.109 20.6676C99.7148 20.1422 99.1649 19.8796 98.4589 19.8796C97.6216 19.8796 96.965 20.1587 96.4889 20.7169C96.0128 21.275 95.7747 22.0466 95.7747 23.0317V31.1829H92.4748V22.7854C92.4748 21.8825 92.2778 21.1765 91.8838 20.6676C91.4898 20.1422 90.9398 19.8796 90.2339 19.8796C89.413 19.8796 88.7563 20.1669 88.2638 20.7415C87.7877 21.2997 87.5497 22.0631 87.5497 23.0317V31.1829H84.2744Z" fill="#070B10"/>
<path d="M75.1322 31.5276C73.786 31.5276 72.6121 31.2321 71.6107 30.6411C70.6256 30.0336 69.8622 29.1799 69.3205 28.08C68.7787 26.98 68.5078 25.6831 68.5078 24.1891C68.5078 22.6951 68.7787 21.3982 69.3205 20.2982C69.8622 19.1983 70.6256 18.3528 71.6107 17.7617C72.6121 17.1543 73.786 16.8506 75.1322 16.8506C76.462 16.8506 77.6194 17.1543 78.6044 17.7617C79.6059 18.3528 80.3775 19.1983 80.9193 20.2982C81.461 21.3982 81.7319 22.6951 81.7319 24.1891C81.7319 25.6831 81.461 26.98 80.9193 28.08C80.3775 29.1799 79.6059 30.0336 78.6044 30.6411C77.6194 31.2321 76.462 31.5276 75.1322 31.5276ZM75.1322 28.4494C76.1336 28.4494 76.9217 28.0718 77.4963 27.3166C78.0873 26.545 78.3828 25.5025 78.3828 24.1891C78.3828 22.8757 78.0873 21.8414 77.4963 21.0862C76.9217 20.3146 76.1336 19.9288 75.1322 19.9288C74.1143 19.9288 73.3099 20.3146 72.7188 21.0862C72.1442 21.8414 71.8569 22.8757 71.8569 24.1891C71.8569 25.5025 72.1524 26.545 72.7435 27.3166C73.3345 28.0718 74.1307 28.4494 75.1322 28.4494Z" fill="#070B10"/>
<path d="M67.2687 20.273H63.5009V26.5772C63.5009 27.1847 63.6651 27.6526 63.9934 27.9809C64.3382 28.3093 64.8143 28.4734 65.4217 28.4734C65.8814 28.4734 66.3986 28.3831 66.9732 28.2025V31.2808C66.2836 31.5106 65.512 31.6255 64.6583 31.6255C63.23 31.6255 62.1301 31.2315 61.3585 30.4435C60.6033 29.6391 60.2257 28.4898 60.2257 26.9959V20.273H58.0586V17.1948H60.2257V13.0576H63.5009V17.1948H67.2687V20.273Z" fill="#070B10"/>
<path d="M58.3946 31.2646H54.7992L52.9523 26.1424H46.2294L44.3825 31.2646H40.7871L47.8547 12.4258H51.3516L58.3946 31.2646ZM49.5293 16.9816L47.3868 22.941H51.8195L49.6771 16.9816H49.5293Z" fill="#070B10"/>
<circle cx="17.4869" cy="21.8394" r="16.0582" fill="#FF0035"/>
<path fill-rule="evenodd" clip-rule="evenodd" d="M11.5565 29.4085C10.9686 29.4129 10.664 29.2574 10.5034 29.0967C10.3428 28.9361 10.1872 28.6315 10.1916 28.0437C10.1949 27.6119 10.2866 27.0812 10.4839 26.4657C10.4901 26.4462 10.4965 26.4266 10.5029 26.407C10.5493 26.2657 10.6012 26.1201 10.6588 25.9703C10.6883 25.8936 10.7192 25.8159 10.7516 25.7371C11.2224 24.5938 11.9763 23.3101 12.9783 22C13.6047 21.181 14.3281 20.3516 15.14 19.5398C15.216 19.4638 15.2921 19.3885 15.3684 19.3141C15.8502 18.8439 16.3373 18.4049 16.8237 17.9989C16.0987 17.4572 15.3893 16.9998 14.7184 16.632C14.2861 17.0134 13.8578 17.4154 13.4367 17.8365C13.3946 17.8787 13.3526 17.9209 13.3109 17.9632C12.6846 18.5972 12.1017 19.2466 11.5675 19.9011C10.9977 20.599 10.4833 21.3027 10.0306 21.9999C9.796 22.3612 9.578 22.7206 9.37746 23.0767C9.04323 23.67 8.75748 24.2538 8.52434 24.82C8.06889 25.9261 7.79049 27.0226 7.78296 28.0256C7.7754 29.0346 8.04624 30.046 8.80017 30.8C9.55411 31.5539 10.5656 31.8247 11.5746 31.8172C12.5776 31.8096 13.6741 31.5312 14.7802 31.0758C15.4008 30.8203 16.0425 30.5015 16.6948 30.125C15.9882 29.646 15.2808 29.1098 14.5834 28.5233C14.3381 28.6434 14.0976 28.7519 13.8631 28.8485C12.9315 29.2321 12.1503 29.4041 11.5565 29.4085ZM15.5013 28.0327C14.8468 27.4984 14.1975 26.9155 13.5634 26.2893C13.5211 26.2475 13.4789 26.2056 13.4368 26.1634C13.0156 25.7423 12.6136 25.3141 12.2322 24.8818C12.6 24.2108 13.0574 23.5015 13.5991 22.7764C14.0373 23.3015 14.514 23.8272 15.0268 24.3463C15.0643 24.3843 15.1021 24.4223 15.14 24.4602C15.9518 25.272 16.7812 25.9954 17.6002 26.6218C18.3138 27.1676 19.0196 27.6398 19.6991 28.0327C20.2671 28.3611 20.8168 28.6342 21.3373 28.8485C21.6561 28.9798 21.9573 29.0863 22.2395 29.1698C22.7816 29.3302 23.2533 29.4056 23.6439 29.4085C24.2318 29.4129 24.5364 29.2574 24.697 29.0968C24.8576 28.9362 25.0132 28.6315 25.0088 28.0437C25.0043 27.4498 24.8323 26.6687 24.4487 25.7371C24.3522 25.5025 24.2437 25.2621 24.1236 25.0167C24.7101 24.3193 25.2462 23.6119 25.7252 22.9054C26.1017 23.5577 26.4205 24.1994 26.676 24.82C27.1315 25.9261 27.4099 27.0226 27.4174 28.0256C27.425 29.0346 27.1541 30.0461 26.4002 30.8C25.6463 31.5539 24.6348 31.8248 23.6258 31.8172C22.6228 31.8097 21.5263 31.5313 20.4202 31.0758C20.399 31.0671 20.3777 31.0583 20.3564 31.0494C19.4697 30.6789 18.5409 30.1804 17.6002 29.5696C16.903 29.1169 16.1992 28.6024 15.5013 28.0327ZM26.8432 18.7527C27.1988 17.7926 27.4108 16.848 27.4174 15.9744C27.4249 14.9654 27.1541 13.9539 26.4002 13.2C25.6462 12.446 24.6348 12.1752 23.6258 12.1828C22.6228 12.1903 21.5263 12.4687 20.4201 12.9242C19.7996 13.1797 19.1579 13.4984 18.5056 13.8749C19.2121 14.354 19.9196 14.8901 20.6169 15.4766C20.8623 15.3565 21.1027 15.248 21.3373 15.1515C22.2689 14.7679 23.05 14.5959 23.6439 14.5914C24.2317 14.587 24.5363 14.7426 24.6969 14.9032C24.8575 15.0638 25.0131 15.3684 25.0087 15.9563C25.0068 16.21 24.9743 16.498 24.9078 16.8173C24.8576 17.0584 24.7879 17.3174 24.6974 17.593C24.6273 17.8065 24.5446 18.03 24.4487 18.2629C24.2344 18.7834 23.9613 19.3331 23.6329 19.9011C23.24 20.5806 22.7678 21.2863 22.222 22C21.9871 22.3071 21.7386 22.6157 21.4769 22.9242C21.106 23.3615 20.7086 23.7987 20.2861 24.2317C20.2116 24.308 20.1364 24.3842 20.0604 24.4602C19.5044 25.0162 18.9401 25.5307 18.3767 26.001C19.1017 26.5428 19.811 27.0001 20.482 27.368C20.9143 26.9866 21.3425 26.5845 21.7636 26.1634C21.8395 26.0875 21.9148 26.0114 21.9894 25.935C24.1565 23.7189 25.7933 21.3236 26.676 19.18C26.6788 19.1733 26.6815 19.1666 26.6843 19.1599C26.7134 19.0888 26.7418 19.0178 26.7694 18.9468C26.7723 18.9395 26.7751 18.9322 26.778 18.9248C26.8002 18.8674 26.822 18.81 26.8432 18.7527ZM21.6012 21.2235C21.1309 20.66 20.6164 20.0958 20.0604 19.5398C20.0225 19.5018 19.9845 19.4641 19.9465 19.4266C19.1711 18.6605 18.3809 17.9752 17.6002 17.3781C16.8866 16.8323 16.1808 16.3601 15.5013 15.9673C14.9333 15.6388 14.3836 15.3658 13.8631 15.1515C13.4555 14.9836 13.0768 14.8563 12.7299 14.7658C12.2839 14.6494 11.8906 14.5939 11.5565 14.5914C10.9686 14.587 10.664 14.7426 10.5034 14.9032C10.3428 15.0638 10.1873 15.3684 10.1917 15.9563C10.1961 16.5501 10.3681 17.3313 10.7517 18.2629C10.8483 18.4974 10.9567 18.7378 11.0768 18.9832C10.4903 19.6806 9.95419 20.388 9.47514 21.0945C9.09865 20.4422 8.77992 19.8006 8.52439 19.18C8.06894 18.0739 7.79053 16.9774 7.78301 15.9744C7.77544 14.9654 8.04628 13.9539 8.80021 13.2C9.55414 12.446 10.5656 12.1752 11.5746 12.1828C12.4982 12.1897 13.501 12.4263 14.5176 12.8193C14.5188 12.8198 14.52 12.8202 14.5212 12.8207C14.6074 12.8541 14.6938 12.8886 14.7802 12.9242C15.6861 13.2972 16.6369 13.8049 17.6002 14.4303C18.2974 14.8831 19.0011 15.3975 19.6991 15.9673C20.3579 16.5051 21.0116 17.0923 21.6498 17.7233C21.6878 17.7609 21.7257 17.7986 21.7636 17.8365C22.1848 18.2576 22.5868 18.6858 22.9682 19.1181C22.6003 19.7891 22.143 20.4984 21.6012 21.2235Z" fill="white"/>
</svg> 